<svg version="1.2" xmlns="http://www.w3.org/2000/svg" viewBox="166.1523 229.29706110015337 329.5821811122912 138.03262624622806" width="330" height="139">
	<style>
		.s0 { fill: #ffffff } 
	</style>
	<g id="Layer 1">
		<g id="&lt;Group&gt;">
			<g id="&lt;Group&gt;">
				<path id="&lt;Path&gt;" class="s0" d="m495.64 343.95c0.61 9.39-1.7 15.88-4.07 22.31-11.12-0.06-20.67-1.7-32.54-1.02 2.93-15.86 3.46-56.23 0-72 8.74-3.62 23.37 2.44 28.47-3.04 5.75 3.38 9.35 17.51 5.09 24.34-8.02-2.14-7.13-13.18-16.28-14.2-2.34 4.08-0.34 12.49-1.01 18.25 5.52 1.12 2.92-5.88 9.15-4.05 2.33 7.15 7.21 11.75 7.12 21.29-9.42 1.97-7.92-6.96-15.26-7.09-2.35 7.1-0.34 18.58-1.01 27.38 12.88 2.02 9.56-12.11 20.34-12.17z"/>
				<path id="&lt;Path&gt;" class="s0" d="m471.23 287.16c2.14-4.78 4.26-17.96 17.29-15.21-3.12 7.7-6.15 15.5-17.29 15.21z"/>
				<path id="&lt;Path&gt;" class="s0" d="m452.92 332.79c5.16 27.42-12.72 37.57-30.5 33.47-0.24-7.84-9.86-21.11-1.02-25.36 7.47 1.01 5.12 11.81 10.17 15.22 8.33 0.51 7.41-10.36 7.12-13.19-1.05-10.18-16.2-18.67-18.31-25.35-5.02-15.96 4.75-31.07 25.43-25.35 0.32 6.21 5.45 17.68-1.02 21.29-6.23-1.55-3.85-11.69-10.17-13.18-7.19 16.02 15.79 19.37 18.3 32.45z"/>
				<path id="&lt;Compound Path&gt;" class="s0" d="m450.89 273.97c5.21 11.25-13.82 19.62-20.34 8.12-0.83-6.66 4.28-8.79-1.01-12.17 1.53-1.51 0.3-5.78 4.06-5.07-5.23-6.4-4.64-18.73 5.09-20.29 2.24-3.18 2.24-8.57 9.15-7.09 1.4 1.3 1.01 4.41 1.02 7.09q-2.54 0-5.09 0c7.09 4.26 8.8 21.79-4.06 21.3 2.36 5.87 9.14 3.7 11.18 8.11zm-13.22 7.1c2.7-0.01 5.99 0.57 6.1-2.03-1.63-1.4-2.5-3.59-6.1-3.04-1.9 1.94 0.61 1.84 0 5.07zm3.05-20.28c-1.01-3.37 2.25-11.02-2.03-11.16 0.63 3.77-1.65 10.45 2.03 11.16z"/>
				<path id="&lt;Path&gt;" class="s0" d="m428.52 276q-5.08 0-10.17 0c3.15-6.96 0.31-14.59-1.02-24.34-2.48 6.55-0.52 17.41 0 24.34q-5.07 0-10.17 0c1.23-3.24 1.83-11.75 1.02-20.28-0.1-1.08-1.82-5.87-2.03-5.07 1.93-7.56 8.34-5.84 16.27-6.09 5.31 7.22 3.81 21.22 6.1 31.44z"/>
				<path id="&lt;Path&gt;" class="s0" d="m414.28 341.92c3.02 8.6-2.26 17.22-4.07 24.34-10.62-0.22-20.05-1.64-31.52-1.02 1.27-18.04 2.03-53.82 0-72 4.07-1.63 14.25-1.63 18.3 0-4.75 12.27-3.52 44.36-2.03 62.88 12.92 1.72 8.84-13.5 19.32-14.2z"/>
				<path id="&lt;Path&gt;" class="s0" d="m405.13 276q-5.08 0-10.17 0c1.09-8.97 2.8-22.08-1.02-27.38 4.18-0.57 4.74-4.73 9.16-5.07 2.21 8.71 0.07 26.85 2.03 32.45z"/>
				<path id="&lt;Path&gt;" class="s0" d="m403.1 229.35c3.9 4.08-0.46 8.89-4.07 11.16-8-1.65-4.14-11.97 4.07-11.16z"/>
				<path id="&lt;Compound Path&gt;" class="s0" d="m392.93 271.95c10.83 19.23-28.31 18.98-17.29 3.04-0.11-2.59-1.86-3.55-3.05-5.07 1.53-1.51 0.3-5.78 4.07-5.07-5.24-6.4-4.65-18.73 5.08-20.29 2.77-2.64 1.94-8.88 9.15-7.09 1.41 1.3 1.01 4.41 1.02 7.09q-2.54 0-5.08 0c7.08 4.26 8.79 21.79-4.07 21.3 0.47 4.95 7.62 3.23 10.17 6.09zm-12.21 9.12c2.7-0.01 5.99 0.57 6.11-2.03-1.64-1.4-2.51-3.59-6.11-3.04-1.9 1.94 0.61 1.84 0 5.07zm3.05-20.28c-1.01-3.37 2.25-11.02-2.03-11.16 0.63 3.77-1.65 10.45 2.03 11.16z"/>
				<path id="&lt;Path&gt;" class="s0" d="m372.59 343.95c2.26 7.19-2.38 15.73-4.07 22.31-10.89-0.29-20.75-1.61-32.54-1.02 3.18-20.27 3.49-55.78 0-73.01 10.79-1.31 22.91 2.82 28.47-2.03 6.14 3.02 8.82 14.87 6.1 23.32-8 1.75-7.31-13.53-17.28-13.18-2.35 4.08-0.35 12.49-1.02 18.25 5.51 0.77 4.01-5.46 10.17-4.05 2.53 6.6 6.01 12.26 6.1 21.29-9.42 1.97-7.92-6.96-15.25-7.09-1.87 6.95-1.45 20.36 0 27.38 12.48 1.97 8.57-12.41 19.32-12.17z"/>
				<path id="&lt;Path&gt;" class="s0" d="m369.54 229.35c4 4.27-0.6 9.57-5.09 11.16-6.77-2.7-2.87-12.03 5.09-11.16z"/>
				<path id="&lt;Compound Path&gt;" class="s0" d="m369.54 244.56c0.09 10.73-0.5 22.14 1.01 31.44-11.22-0.43-19.72 0.17-32.54 0 1.11-3.59 1.69-22.92 0-26.37 4.03-6.57 6.59-4.67 14.24-5.07 7.72 4.49 2.86 21.5 7.12 29.41 7.99-6.79-7.43-31.39 10.17-29.41zm-20.34 29.41c-0.46-7.64 1.36-17.58-2.04-22.31 1.1 7.03-2.33 18.57 2.04 22.31z"/>
				<path id="&lt;Compound Path&gt;" class="s0" d="m332.93 244.56c2.01 4.08 3.86 8.33 3.05 15.22-4.17 0.23-6.66 2.15-9.15 4.05-0.13 1.83 1.25 2.14 1.01 4.06 4.47 1.07 3.35-3.43 7.12-3.04q0 5.07 0 10.14c-11.66 6.45-17.67-5.46-15.25-19.27-0.26-2.1-4.47-0.27-5.09-2.03-4.33 5.8-2.18 18.86-1.01 22.31q-5.59 0-11.19 0c5.22-10.14-6.81-31.5 8.14-32.45q0 3.04 0 6.08c3.09-1.31 2.39-6.4 8.13-5.07 1.71 1.69 0.81 5.96 1.02 9.13 1.55-3.52 3.71-6.44 6.1-9.13q3.57 0 7.12 0zm-6.1 14.2c1.17-1.28 2.04-7.99 0-9.13-1.16 1.29-2.05 8.01 0 9.13z"/>
				<path id="&lt;Compound Path&gt;" class="s0" d="m293.27 292.23c47.01-13.37 54.89 90.3-1.02 73.01 2.02-18.32 0.58-56.11 1.02-73.01zm16.27 65.91c9.9-10.04 8.45-46.54-1.02-55.77-0.65 16.36-3.27 41.22 1.02 55.77z"/>
				<path id="&lt;Compound Path&gt;" class="s0" d="m300.39 265.86c1.4 3.21-0.43 7.12-2.04 10.14-22.84 9.03-16.19-44.56 2.04-28.39q0 6.08 0 12.17c-3.33 1.75-9.32 0.85-8.14 7.09 3.02 4.02 5.01-4.91 8.14-1.01zm-9.16-7.1c2.6-1.57 4.42-7.16 0-8.11 1.44 3.55-2.84 6.49 0 8.11z"/>
				<path id="&lt;Path&gt;" class="s0" d="m284.12 245.58c-1.89 6.35-4.36 20.59-6.11 30.42q-3.55 0-7.11 0c-2.02-10.49-5.01-20.02-7.12-30.42 1.93-1.8 6.72-0.74 10.17-1.02-0.23 5.31 0.02 10.14 1.01 14.2 2.56-5.17 1.07-8.97 0-14.2 3.19 0.22 7.47-0.67 9.16 1.02z"/>
				<path id="&lt;Compound Path&gt;" class="s0" d="m263.78 276q-15.26 0-30.51 0c1.24-3.34 1.82-11.78 1.02-20.28-0.12-1.27-1.77-5.93-2.04-5.07 2.99-10.09 16.45-2.98 26.44-6.09 5.29 6.91 3.15 21.21 5.09 31.44zm-9.15-2.03c-0.68-7.43 1.71-17.94-2.04-22.31-0.79 5.99-3.29 19.4 2.04 22.31zm-10.17-1.01c-1.66-7.5 3.26-19.65-2.04-21.3 1.24 6.54-2.54 18.09 2.04 21.3z"/>
				<path id="&lt;Compound Path&gt;" class="s0" d="m248.52 292.23c47.13-13.99 55.2 91.04-1.01 73.01 2.02-18.32 0.58-56.11 1.01-73.01zm17.29 65.91c7.52-11.11 8.63-47.35-2.03-55.77-0.44 16.45-3.99 42.62 2.03 55.77z"/>
				<path id="&lt;Path&gt;" class="s0" d="m240.39 365.24q-9.15 0-18.31 0c3.41-19.62 3.04-55.69 0-72 4.07-1.63 14.25-1.63 18.31 0-4.89 14.59-4.46 57.32 0 72z"/>
				<path id="&lt;Compound Path&gt;" class="s0" d="m231.24 265.86c1.4 3.21-0.43 7.12-2.04 10.14-22.84 9.03-16.19-44.56 2.04-28.39q0 6.08 0 12.17c-3.33 1.75-9.32 0.85-8.14 7.09 3.02 4.02 5.01-4.91 8.14-1.01zm-9.16-7.1c2.6-1.57 4.42-7.16 0-8.11 1.44 3.55-2.84 6.49 0 8.11z"/>
				<path id="&lt;Path&gt;" class="s0" d="m218.02 365.24q-8.64 0-17.29 0c2.17-8.51 0.52-22.78 1.02-35.49-4.26 9.28-3.58 23.47-9.16 31.44-6.55-7.33-6.65-21.09-9.15-32.45-3.09 10.09-2.41 29.71 0 36.5q-7.63 0-15.25 0c2.85-17.81 8.89-53.92 4.06-73.01q8.15 0 16.27 0c-2.96 13.21 3.44 22.82 4.07 35.49 3.63-9.64 9.24-26.34 5.09-34.48 3.45-1.62 12.81-1.62 16.27 0-4.03 17.59 0.63 55.37 4.07 72z"/>
				<path id="&lt;Compound Path&gt;" class="s0" d="m214.96 245.58c-1.88 6.35-4.35 20.59-6.1 30.42q-3.05 0-6.1 0c-0.85-4.54-2.17-8.64-2.03-14.2-2.08 3.69-1.47 10.04-3.05 14.2q-3.05 0-6.1 0c-0.34-10.47-4.6-17.04-6.11-26.37-4.21 5.61-5.1 14.53-9.15 20.29 2.31 1.89 4.3-5.13 7.12-6.09 4.7 2.76 0.64 11.34-1.02 14.2-2.62-3.46-10.64-1.55-16.27-2.03 1.79-10.05 6.84-16.84 10.17-25.35-2.65-2.58-2.38 6.37-8.13 4.06 0.39-4.96 2.42-6.73 1.01-11.16 14.53 1.69 22.77 1.87 35.6 1.01-0.23 5.31 0.02 10.14 1.01 14.2 2.56-5.17 1.07-8.97 0-14.2 3.19 0.22 7.47-0.67 9.15 1.02zm-19.32 12.17c0.53-4.06 3.67-9.06-1.01-10.14-0.61 1.11-0.54 8.05 1.01 10.14z"/>
			</g>
			<g id="&lt;Group&gt;">
			</g>
		</g>
	</g>
</svg>